<?xml version="1.0" encoding="UTF-8" standalone="no"?>
<!-- Created with Inkscape (http://www.inkscape.org/) -->

<svg
   xmlns:dc="http://purl.org/dc/elements/1.1/"
   xmlns:cc="http://creativecommons.org/ns#"
   xmlns:rdf="http://www.w3.org/1999/02/22-rdf-syntax-ns#"
   xmlns:svg="http://www.w3.org/2000/svg"
   xmlns="http://www.w3.org/2000/svg"
   xmlns:sodipodi="http://sodipodi.sourceforge.net/DTD/sodipodi-0.dtd"
   xmlns:inkscape="http://www.inkscape.org/namespaces/inkscape"
   width="544.28583"
   height="97.227676"
   id="svg67356"
   version="1.1"
   inkscape:version="0.48.4 r9939"
   sodipodi:docname="how_to_normal_force_and_friction_f10.svg">
  <defs
     id="defs67358">
    <marker
       inkscape:stockid="Arrow1MendUBuW8h"
       orient="auto"
       refY="0"
       refX="0"
       id="Arrow1MendUBuW8h"
       style="overflow:visible">
      <path
         id="path8318"
         d="M 0,0 5,-5 -12.5,0 5,5 0,0 z"
         style="fill:#ff00ff;fill-rule:evenodd;stroke:#ff00ff;stroke-width:1pt"
         transform="matrix(-0.4,0,0,-0.4,-4,0)"
         inkscape:connector-curvature="0" />
    </marker>
    <marker
       inkscape:stockid="Arrow1MendUE"
       orient="auto"
       refY="0"
       refX="0"
       id="Arrow1MendUE"
       style="overflow:visible">
      <path
         id="path6952"
         d="M 0,0 5,-5 -12.5,0 5,5 0,0 z"
         style="fill:#000096;fill-rule:evenodd;stroke:#000096;stroke-width:1pt"
         transform="matrix(-0.4,0,0,-0.4,-4,0)"
         inkscape:connector-curvature="0" />
    </marker>
    <marker
       inkscape:stockid="Arrow1MendUBuW"
       orient="auto"
       refY="0"
       refX="0"
       id="Arrow1MendUBuW"
       style="overflow:visible">
      <path
         id="path7266"
         d="M 0,0 5,-5 -12.5,0 5,5 0,0 z"
         style="fill:#000096;fill-rule:evenodd;stroke:#000096;stroke-width:1pt"
         transform="matrix(-0.4,0,0,-0.4,-4,0)"
         inkscape:connector-curvature="0" />
    </marker>
    <marker
       inkscape:stockid="Arrow1MendOy"
       orient="auto"
       refY="0"
       refX="0"
       id="Arrow1MendOy"
       style="overflow:visible">
      <path
         id="path7107"
         d="M 0,0 5,-5 -12.5,0 5,5 0,0 z"
         style="fill:#00c8ff;fill-rule:evenodd;stroke:#00c8ff;stroke-width:1pt"
         transform="matrix(-0.4,0,0,-0.4,-4,0)"
         inkscape:connector-curvature="0" />
    </marker>
    <marker
       inkscape:stockid="Arrow1MendUL3"
       orient="auto"
       refY="0"
       refX="0"
       id="Arrow1MendUL3"
       style="overflow:visible">
      <path
         id="path6801"
         d="M 0,0 5,-5 -12.5,0 5,5 0,0 z"
         style="fill:#007800;fill-rule:evenodd;stroke:#007800;stroke-width:1pt"
         transform="matrix(-0.4,0,0,-0.4,-4,0)"
         inkscape:connector-curvature="0" />
    </marker>
    <marker
       inkscape:stockid="Arrow1MendUBuW8"
       orient="auto"
       refY="0"
       refX="0"
       id="Arrow1MendUBuW8"
       style="overflow:visible">
      <path
         id="path7622"
         d="M 0,0 5,-5 -12.5,0 5,5 0,0 z"
         style="fill:#007800;fill-rule:evenodd;stroke:#007800;stroke-width:1pt"
         transform="matrix(-0.4,0,0,-0.4,-4,0)"
         inkscape:connector-curvature="0" />
    </marker>
    <marker
       inkscape:stockid="Arrow1MendUBuW8"
       orient="auto"
       refY="0"
       refX="0"
       id="marker67249"
       style="overflow:visible">
      <path
         id="path67251"
         d="M 0,0 5,-5 -12.5,0 5,5 0,0 z"
         style="fill:#007800;fill-rule:evenodd;stroke:#007800;stroke-width:1pt"
         transform="matrix(-0.4,0,0,-0.4,-4,0)"
         inkscape:connector-curvature="0" />
    </marker>
    <marker
       inkscape:stockid="Arrow1MendUBuW8hPy"
       orient="auto"
       refY="0"
       refX="0"
       id="Arrow1MendUBuW8hPy"
       style="overflow:visible">
      <path
         id="path9623"
         d="M 0,0 5,-5 -12.5,0 5,5 0,0 z"
         style="fill:#a000a0;fill-rule:evenodd;stroke:#a000a0;stroke-width:1pt"
         transform="matrix(-0.4,0,0,-0.4,-4,0)"
         inkscape:connector-curvature="0" />
    </marker>
    <marker
       inkscape:stockid="Arrow1MendOy"
       orient="auto"
       refY="0"
       refX="0"
       id="marker67255"
       style="overflow:visible">
      <path
         id="path67257"
         d="M 0,0 5,-5 -12.5,0 5,5 0,0 z"
         style="fill:#00c8ff;fill-rule:evenodd;stroke:#00c8ff;stroke-width:1pt"
         transform="matrix(-0.4,0,0,-0.4,-4,0)"
         inkscape:connector-curvature="0" />
    </marker>
    <marker
       inkscape:stockid="Arrow1MendUBuW8a"
       orient="auto"
       refY="0"
       refX="0"
       id="Arrow1MendUBuW8a"
       style="overflow:visible">
      <path
         id="path20581"
         d="M 0,0 5,-5 -12.5,0 5,5 0,0 z"
         style="fill:#00c8ff;fill-rule:evenodd;stroke:#00c8ff;stroke-width:1pt"
         transform="matrix(-0.4,0,0,-0.4,-4,0)"
         inkscape:connector-curvature="0" />
    </marker>
    <marker
       inkscape:stockid="Arrow1MendUBuW8a"
       orient="auto"
       refY="0"
       refX="0"
       id="marker67261"
       style="overflow:visible">
      <path
         id="path67263"
         d="M 0,0 5,-5 -12.5,0 5,5 0,0 z"
         style="fill:#00c8ff;fill-rule:evenodd;stroke:#00c8ff;stroke-width:1pt"
         transform="matrix(-0.4,0,0,-0.4,-4,0)"
         inkscape:connector-curvature="0" />
    </marker>
    <marker
       inkscape:stockid="Arrow1MendUE"
       orient="auto"
       refY="0"
       refX="0"
       id="Arrow1MendUE-9"
       style="overflow:visible">
      <path
         id="path6952-3"
         d="M 0,0 5,-5 -12.5,0 5,5 0,0 z"
         style="fill:#000096;fill-rule:evenodd;stroke:#000096;stroke-width:1pt"
         transform="matrix(-0.4,0,0,-0.4,-4,0)"
         inkscape:connector-curvature="0" />
    </marker>
    <marker
       inkscape:stockid="Arrow1MendOy"
       orient="auto"
       refY="0"
       refX="0"
       id="Arrow1MendOy-9"
       style="overflow:visible">
      <path
         id="path7107-1"
         d="M 0,0 5,-5 -12.5,0 5,5 0,0 z"
         style="fill:#00c8ff;fill-rule:evenodd;stroke:#00c8ff;stroke-width:1pt"
         transform="matrix(-0.4,0,0,-0.4,-4,0)"
         inkscape:connector-curvature="0" />
    </marker>
    <marker
       inkscape:stockid="Arrow1MendUE"
       orient="auto"
       refY="0"
       refX="0"
       id="Arrow1MendUE-99"
       style="overflow:visible">
      <path
         id="path6952-1"
         d="M 0,0 5,-5 -12.5,0 5,5 0,0 z"
         style="fill:#000096;fill-rule:evenodd;stroke:#000096;stroke-width:1pt"
         transform="matrix(-0.4,0,0,-0.4,-4,0)"
         inkscape:connector-curvature="0" />
    </marker>
    <marker
       inkscape:stockid="Arrow1MendUBuW"
       orient="auto"
       refY="0"
       refX="0"
       id="Arrow1MendUBuW-9"
       style="overflow:visible">
      <path
         id="path7266-8"
         d="M 0,0 5,-5 -12.5,0 5,5 0,0 z"
         style="fill:#000096;fill-rule:evenodd;stroke:#000096;stroke-width:1pt"
         transform="matrix(-0.4,0,0,-0.4,-4,0)"
         inkscape:connector-curvature="0" />
    </marker>
    <marker
       inkscape:stockid="Arrow1MendOy"
       orient="auto"
       refY="0"
       refX="0"
       id="Arrow1MendOy-92"
       style="overflow:visible">
      <path
         id="path7107-5"
         d="M 0,0 5,-5 -12.5,0 5,5 0,0 z"
         style="fill:#00c8ff;fill-rule:evenodd;stroke:#00c8ff;stroke-width:1pt"
         transform="matrix(-0.4,0,0,-0.4,-4,0)"
         inkscape:connector-curvature="0" />
    </marker>
    <marker
       inkscape:stockid="Arrow1MendUL3"
       orient="auto"
       refY="0"
       refX="0"
       id="Arrow1MendUL3-1"
       style="overflow:visible">
      <path
         id="path6801-7"
         d="M 0,0 5,-5 -12.5,0 5,5 0,0 z"
         style="fill:#007800;fill-rule:evenodd;stroke:#007800;stroke-width:1pt"
         transform="matrix(-0.4,0,0,-0.4,-4,0)"
         inkscape:connector-curvature="0" />
    </marker>
    <marker
       inkscape:stockid="Arrow1MendOy"
       orient="auto"
       refY="0"
       refX="0"
       id="marker12362"
       style="overflow:visible">
      <path
         id="path12364"
         d="M 0,0 5,-5 -12.5,0 5,5 0,0 z"
         style="fill:#00c8ff;fill-rule:evenodd;stroke:#00c8ff;stroke-width:1pt"
         transform="matrix(-0.4,0,0,-0.4,-4,0)"
         inkscape:connector-curvature="0" />
    </marker>
    <marker
       inkscape:stockid="Arrow1MendUE"
       orient="auto"
       refY="0"
       refX="0"
       id="Arrow1MendUE-0"
       style="overflow:visible">
      <path
         id="path6952-16"
         d="M 0,0 5,-5 -12.5,0 5,5 0,0 z"
         style="fill:#000096;fill-rule:evenodd;stroke:#000096;stroke-width:1pt"
         transform="matrix(-0.4,0,0,-0.4,-4,0)"
         inkscape:connector-curvature="0" />
    </marker>
    <marker
       inkscape:stockid="Arrow1MendOy"
       orient="auto"
       refY="0"
       refX="0"
       id="Arrow1MendOy-3"
       style="overflow:visible">
      <path
         id="path7107-3"
         d="M 0,0 5,-5 -12.5,0 5,5 0,0 z"
         style="fill:#00c8ff;fill-rule:evenodd;stroke:#00c8ff;stroke-width:1pt"
         transform="matrix(-0.4,0,0,-0.4,-4,0)"
         inkscape:connector-curvature="0" />
    </marker>
    <marker
       inkscape:stockid="Arrow1MendUE"
       orient="auto"
       refY="0"
       refX="0"
       id="Arrow1MendUE-94"
       style="overflow:visible">
      <path
         id="path6952-6"
         d="M 0,0 5,-5 -12.5,0 5,5 0,0 z"
         style="fill:#000096;fill-rule:evenodd;stroke:#000096;stroke-width:1pt"
         transform="matrix(-0.4,0,0,-0.4,-4,0)"
         inkscape:connector-curvature="0" />
    </marker>
    <marker
       inkscape:stockid="Arrow1MendUBuW"
       orient="auto"
       refY="0"
       refX="0"
       id="Arrow1MendUBuW-3"
       style="overflow:visible">
      <path
         id="path7266-6"
         d="M 0,0 5,-5 -12.5,0 5,5 0,0 z"
         style="fill:#000096;fill-rule:evenodd;stroke:#000096;stroke-width:1pt"
         transform="matrix(-0.4,0,0,-0.4,-4,0)"
         inkscape:connector-curvature="0" />
    </marker>
    <marker
       inkscape:stockid="Arrow1MendOy"
       orient="auto"
       refY="0"
       refX="0"
       id="Arrow1MendOy-90"
       style="overflow:visible">
      <path
         id="path7107-12"
         d="M 0,0 5,-5 -12.5,0 5,5 0,0 z"
         style="fill:#00c8ff;fill-rule:evenodd;stroke:#00c8ff;stroke-width:1pt"
         transform="matrix(-0.4,0,0,-0.4,-4,0)"
         inkscape:connector-curvature="0" />
    </marker>
    <marker
       inkscape:stockid="Arrow1MendUL3"
       orient="auto"
       refY="0"
       refX="0"
       id="Arrow1MendUL3-5"
       style="overflow:visible">
      <path
         id="path6801-3"
         d="M 0,0 5,-5 -12.5,0 5,5 0,0 z"
         style="fill:#007800;fill-rule:evenodd;stroke:#007800;stroke-width:1pt"
         transform="matrix(-0.4,0,0,-0.4,-4,0)"
         inkscape:connector-curvature="0" />
    </marker>
    <marker
       inkscape:stockid="Arrow1MendOy"
       orient="auto"
       refY="0"
       refX="0"
       id="marker12801"
       style="overflow:visible">
      <path
         id="path12803"
         d="M 0,0 5,-5 -12.5,0 5,5 0,0 z"
         style="fill:#00c8ff;fill-rule:evenodd;stroke:#00c8ff;stroke-width:1pt"
         transform="matrix(-0.4,0,0,-0.4,-4,0)"
         inkscape:connector-curvature="0" />
    </marker>
    <marker
       inkscape:stockid="Arrow1MendUL3"
       orient="auto"
       refY="0"
       refX="0"
       id="Arrow1MendUL3-6"
       style="overflow:visible">
      <path
         id="path6801-1"
         d="M 0,0 5,-5 -12.5,0 5,5 0,0 z"
         style="fill:#007800;fill-rule:evenodd;stroke:#007800;stroke-width:1pt"
         transform="matrix(-0.4,0,0,-0.4,-4,0)"
         inkscape:connector-curvature="0" />
    </marker>
    <marker
       inkscape:stockid="Arrow1MendUBuW8"
       orient="auto"
       refY="0"
       refX="0"
       id="Arrow1MendUBuW8-4"
       style="overflow:visible">
      <path
         id="path7622-3"
         d="M 0,0 5,-5 -12.5,0 5,5 0,0 z"
         style="fill:#007800;fill-rule:evenodd;stroke:#007800;stroke-width:1pt"
         transform="matrix(-0.4,0,0,-0.4,-4,0)"
         inkscape:connector-curvature="0" />
    </marker>
    <marker
       inkscape:stockid="Arrow1MendUBuW8"
       orient="auto"
       refY="0"
       refX="0"
       id="marker13024"
       style="overflow:visible">
      <path
         id="path13026"
         d="M 0,0 5,-5 -12.5,0 5,5 0,0 z"
         style="fill:#007800;fill-rule:evenodd;stroke:#007800;stroke-width:1pt"
         transform="matrix(-0.4,0,0,-0.4,-4,0)"
         inkscape:connector-curvature="0" />
    </marker>
    <marker
       inkscape:stockid="Arrow1MendUBuW8h"
       orient="auto"
       refY="0"
       refX="0"
       id="Arrow1MendUBuW8h-7"
       style="overflow:visible">
      <path
         id="path8318-5"
         d="M 0,0 5,-5 -12.5,0 5,5 0,0 z"
         style="fill:#ff00ff;fill-rule:evenodd;stroke:#ff00ff;stroke-width:1pt"
         transform="matrix(-0.4,0,0,-0.4,-4,0)"
         inkscape:connector-curvature="0" />
    </marker>
    <marker
       inkscape:stockid="Arrow1MendUL3"
       orient="auto"
       refY="0"
       refX="0"
       id="Arrow1MendUL3-9"
       style="overflow:visible">
      <path
         id="path6801-5"
         d="M 0,0 5,-5 -12.5,0 5,5 0,0 z"
         style="fill:#007800;fill-rule:evenodd;stroke:#007800;stroke-width:1pt"
         transform="matrix(-0.4,0,0,-0.4,-4,0)"
         inkscape:connector-curvature="0" />
    </marker>
    <marker
       inkscape:stockid="Arrow1MendUBuW8"
       orient="auto"
       refY="0"
       refX="0"
       id="Arrow1MendUBuW8-8"
       style="overflow:visible">
      <path
         id="path7622-5"
         d="M 0,0 5,-5 -12.5,0 5,5 0,0 z"
         style="fill:#007800;fill-rule:evenodd;stroke:#007800;stroke-width:1pt"
         transform="matrix(-0.4,0,0,-0.4,-4,0)"
         inkscape:connector-curvature="0" />
    </marker>
    <marker
       inkscape:stockid="Arrow1MendUBuW8"
       orient="auto"
       refY="0"
       refX="0"
       id="marker13344"
       style="overflow:visible">
      <path
         id="path13346"
         d="M 0,0 5,-5 -12.5,0 5,5 0,0 z"
         style="fill:#007800;fill-rule:evenodd;stroke:#007800;stroke-width:1pt"
         transform="matrix(-0.4,0,0,-0.4,-4,0)"
         inkscape:connector-curvature="0" />
    </marker>
    <marker
       inkscape:stockid="Arrow1MendUBuW8h"
       orient="auto"
       refY="0"
       refX="0"
       id="Arrow1MendUBuW8h-3"
       style="overflow:visible">
      <path
         id="path8318-4"
         d="M 0,0 5,-5 -12.5,0 5,5 0,0 z"
         style="fill:#ff00ff;fill-rule:evenodd;stroke:#ff00ff;stroke-width:1pt"
         transform="matrix(-0.4,0,0,-0.4,-4,0)"
         inkscape:connector-curvature="0" />
    </marker>
    <marker
       inkscape:stockid="Arrow1MendUL3"
       orient="auto"
       refY="0"
       refX="0"
       id="Arrow1MendUL3-8"
       style="overflow:visible">
      <path
         id="path6801-36"
         d="M 0,0 5,-5 -12.5,0 5,5 0,0 z"
         style="fill:#007800;fill-rule:evenodd;stroke:#007800;stroke-width:1pt"
         transform="matrix(-0.4,0,0,-0.4,-4,0)"
         inkscape:connector-curvature="0" />
    </marker>
    <marker
       inkscape:stockid="Arrow1MendUBuW8"
       orient="auto"
       refY="0"
       refX="0"
       id="Arrow1MendUBuW8-9"
       style="overflow:visible">
      <path
         id="path7622-6"
         d="M 0,0 5,-5 -12.5,0 5,5 0,0 z"
         style="fill:#007800;fill-rule:evenodd;stroke:#007800;stroke-width:1pt"
         transform="matrix(-0.4,0,0,-0.4,-4,0)"
         inkscape:connector-curvature="0" />
    </marker>
    <marker
       inkscape:stockid="Arrow1MendUBuW8"
       orient="auto"
       refY="0"
       refX="0"
       id="marker13671"
       style="overflow:visible">
      <path
         id="path13673"
         d="M 0,0 5,-5 -12.5,0 5,5 0,0 z"
         style="fill:#007800;fill-rule:evenodd;stroke:#007800;stroke-width:1pt"
         transform="matrix(-0.4,0,0,-0.4,-4,0)"
         inkscape:connector-curvature="0" />
    </marker>
    <marker
       inkscape:stockid="Arrow1MendUBuW8hPy"
       orient="auto"
       refY="0"
       refX="0"
       id="Arrow1MendUBuW8hPy-7"
       style="overflow:visible">
      <path
         id="path9623-5"
         d="M 0,0 5,-5 -12.5,0 5,5 0,0 z"
         style="fill:#a000a0;fill-rule:evenodd;stroke:#a000a0;stroke-width:1pt"
         transform="matrix(-0.4,0,0,-0.4,-4,0)"
         inkscape:connector-curvature="0" />
    </marker>
    <marker
       inkscape:stockid="Arrow1MendUBuW8h"
       orient="auto"
       refY="0"
       refX="0"
       id="Arrow1MendUBuW8h-4"
       style="overflow:visible">
      <path
         id="path8318-8"
         d="M 0,0 5,-5 -12.5,0 5,5 0,0 z"
         style="fill:#ff00ff;fill-rule:evenodd;stroke:#ff00ff;stroke-width:1pt"
         transform="matrix(-0.4,0,0,-0.4,-4,0)"
         inkscape:connector-curvature="0" />
    </marker>
    <marker
       inkscape:stockid="Arrow1MendUE"
       orient="auto"
       refY="0"
       refX="0"
       id="Arrow1MendUE-1"
       style="overflow:visible">
      <path
         id="path6952-0"
         d="M 0,0 5,-5 -12.5,0 5,5 0,0 z"
         style="fill:#000096;fill-rule:evenodd;stroke:#000096;stroke-width:1pt"
         transform="matrix(-0.4,0,0,-0.4,-4,0)"
         inkscape:connector-curvature="0" />
    </marker>
    <marker
       inkscape:stockid="Arrow1MendOy"
       orient="auto"
       refY="0"
       refX="0"
       id="Arrow1MendOy-1"
       style="overflow:visible">
      <path
         id="path7107-7"
         d="M 0,0 5,-5 -12.5,0 5,5 0,0 z"
         style="fill:#00c8ff;fill-rule:evenodd;stroke:#00c8ff;stroke-width:1pt"
         transform="matrix(-0.4,0,0,-0.4,-4,0)"
         inkscape:connector-curvature="0" />
    </marker>
    <marker
       inkscape:stockid="Arrow1MendUBuW8hPy"
       orient="auto"
       refY="0"
       refX="0"
       id="Arrow1MendUBuW8hPy-0"
       style="overflow:visible">
      <path
         id="path9623-3"
         d="M 0,0 5,-5 -12.5,0 5,5 0,0 z"
         style="fill:#a000a0;fill-rule:evenodd;stroke:#a000a0;stroke-width:1pt"
         transform="matrix(-0.4,0,0,-0.4,-4,0)"
         inkscape:connector-curvature="0" />
    </marker>
    <marker
       inkscape:stockid="Arrow1MendUBuW8a"
       orient="auto"
       refY="0"
       refX="0"
       id="Arrow1MendUBuW8a-0"
       style="overflow:visible">
      <path
         id="path20581-2"
         d="M 0,0 5,-5 -12.5,0 5,5 0,0 z"
         style="fill:#00c8ff;fill-rule:evenodd;stroke:#00c8ff;stroke-width:1pt"
         transform="matrix(-0.4,0,0,-0.4,-4,0)"
         inkscape:connector-curvature="0" />
    </marker>
    <marker
       inkscape:stockid="Arrow1MendUBuW8h"
       orient="auto"
       refY="0"
       refX="0"
       id="Arrow1MendUBuW8h-9"
       style="overflow:visible">
      <path
         id="path8318-40"
         d="M 0,0 5,-5 -12.5,0 5,5 0,0 z"
         style="fill:#ff00ff;fill-rule:evenodd;stroke:#ff00ff;stroke-width:1pt"
         transform="matrix(-0.4,0,0,-0.4,-4,0)"
         inkscape:connector-curvature="0" />
    </marker>
    <marker
       inkscape:stockid="Arrow1MendUE"
       orient="auto"
       refY="0"
       refX="0"
       id="Arrow1MendUE-2"
       style="overflow:visible">
      <path
         id="path6952-8"
         d="M 0,0 5,-5 -12.5,0 5,5 0,0 z"
         style="fill:#000096;fill-rule:evenodd;stroke:#000096;stroke-width:1pt"
         transform="matrix(-0.4,0,0,-0.4,-4,0)"
         inkscape:connector-curvature="0" />
    </marker>
    <marker
       inkscape:stockid="Arrow1MendOy"
       orient="auto"
       refY="0"
       refX="0"
       id="Arrow1MendOy-31"
       style="overflow:visible">
      <path
         id="path7107-34"
         d="M 0,0 5,-5 -12.5,0 5,5 0,0 z"
         style="fill:#00c8ff;fill-rule:evenodd;stroke:#00c8ff;stroke-width:1pt"
         transform="matrix(-0.4,0,0,-0.4,-4,0)"
         inkscape:connector-curvature="0" />
    </marker>
    <marker
       inkscape:stockid="Arrow1MendUBuW8hPy"
       orient="auto"
       refY="0"
       refX="0"
       id="Arrow1MendUBuW8hPy-8"
       style="overflow:visible">
      <path
         id="path9623-2"
         d="M 0,0 5,-5 -12.5,0 5,5 0,0 z"
         style="fill:#a000a0;fill-rule:evenodd;stroke:#a000a0;stroke-width:1pt"
         transform="matrix(-0.4,0,0,-0.4,-4,0)"
         inkscape:connector-curvature="0" />
    </marker>
    <marker
       inkscape:stockid="Arrow1MendUBuW8a"
       orient="auto"
       refY="0"
       refX="0"
       id="marker14121"
       style="overflow:visible">
      <path
         id="path14123"
         d="M 0,0 5,-5 -12.5,0 5,5 0,0 z"
         style="fill:#00c8ff;fill-rule:evenodd;stroke:#00c8ff;stroke-width:1pt"
         transform="matrix(-0.4,0,0,-0.4,-4,0)"
         inkscape:connector-curvature="0" />
    </marker>
    <marker
       inkscape:stockid="Arrow1MendUBuW8a"
       orient="auto"
       refY="0"
       refX="0"
       id="Arrow1MendUBuW8a-1"
       style="overflow:visible">
      <path
         id="path20581-28"
         d="M 0,0 5,-5 -12.5,0 5,5 0,0 z"
         style="fill:#00c8ff;fill-rule:evenodd;stroke:#00c8ff;stroke-width:1pt"
         transform="matrix(-0.4,0,0,-0.4,-4,0)"
         inkscape:connector-curvature="0" />
    </marker>
    <marker
       inkscape:stockid="Arrow1MendUBuW8h"
       orient="auto"
       refY="0"
       refX="0"
       id="Arrow1MendUBuW8h-97"
       style="overflow:visible">
      <path
         id="path8318-48"
         d="M 0,0 5,-5 -12.5,0 5,5 0,0 z"
         style="fill:#ff00ff;fill-rule:evenodd;stroke:#ff00ff;stroke-width:1pt"
         transform="matrix(-0.4,0,0,-0.4,-4,0)"
         inkscape:connector-curvature="0" />
    </marker>
    <marker
       inkscape:stockid="Arrow1MendUE"
       orient="auto"
       refY="0"
       refX="0"
       id="Arrow1MendUE-6"
       style="overflow:visible">
      <path
         id="path6952-35"
         d="M 0,0 5,-5 -12.5,0 5,5 0,0 z"
         style="fill:#000096;fill-rule:evenodd;stroke:#000096;stroke-width:1pt"
         transform="matrix(-0.4,0,0,-0.4,-4,0)"
         inkscape:connector-curvature="0" />
    </marker>
    <marker
       inkscape:stockid="Arrow1MendOy"
       orient="auto"
       refY="0"
       refX="0"
       id="Arrow1MendOy-0"
       style="overflow:visible">
      <path
         id="path7107-2"
         d="M 0,0 5,-5 -12.5,0 5,5 0,0 z"
         style="fill:#00c8ff;fill-rule:evenodd;stroke:#00c8ff;stroke-width:1pt"
         transform="matrix(-0.4,0,0,-0.4,-4,0)"
         inkscape:connector-curvature="0" />
    </marker>
    <marker
       inkscape:stockid="Arrow1MendUBuW8hPy"
       orient="auto"
       refY="0"
       refX="0"
       id="Arrow1MendUBuW8hPy-6"
       style="overflow:visible">
      <path
         id="path9623-1"
         d="M 0,0 5,-5 -12.5,0 5,5 0,0 z"
         style="fill:#a000a0;fill-rule:evenodd;stroke:#a000a0;stroke-width:1pt"
         transform="matrix(-0.4,0,0,-0.4,-4,0)"
         inkscape:connector-curvature="0" />
    </marker>
    <marker
       inkscape:stockid="Arrow1MendUBuW8a"
       orient="auto"
       refY="0"
       refX="0"
       id="marker14355"
       style="overflow:visible">
      <path
         id="path14357"
         d="M 0,0 5,-5 -12.5,0 5,5 0,0 z"
         style="fill:#00c8ff;fill-rule:evenodd;stroke:#00c8ff;stroke-width:1pt"
         transform="matrix(-0.4,0,0,-0.4,-4,0)"
         inkscape:connector-curvature="0" />
    </marker>
    <marker
       inkscape:stockid="Arrow1MendUE"
       orient="auto"
       refY="0"
       refX="0"
       id="Arrow1MendUE-7"
       style="overflow:visible">
      <path
         id="path6952-9"
         d="M 0,0 5,-5 -12.5,0 5,5 0,0 z"
         style="fill:#000096;fill-rule:evenodd;stroke:#000096;stroke-width:1pt"
         transform="matrix(-0.4,0,0,-0.4,-4,0)"
         inkscape:connector-curvature="0" />
    </marker>
    <marker
       inkscape:stockid="Arrow1MendUBuW8h"
       orient="auto"
       refY="0"
       refX="0"
       id="Arrow1MendUBuW8h-0"
       style="overflow:visible">
      <path
         id="path8318-3"
         d="M 0,0 5,-5 -12.5,0 5,5 0,0 z"
         style="fill:#ff00ff;fill-rule:evenodd;stroke:#ff00ff;stroke-width:1pt"
         transform="matrix(-0.4,0,0,-0.4,-4,0)"
         inkscape:connector-curvature="0" />
    </marker>
    <marker
       inkscape:stockid="Arrow1MendUBuW8a"
       orient="auto"
       refY="0"
       refX="0"
       id="Arrow1MendUBuW8a-17"
       style="overflow:visible">
      <path
         id="path20581-8"
         d="M 0,0 5,-5 -12.5,0 5,5 0,0 z"
         style="fill:#00c8ff;fill-rule:evenodd;stroke:#00c8ff;stroke-width:1pt"
         transform="matrix(-0.4,0,0,-0.4,-4,0)"
         inkscape:connector-curvature="0" />
    </marker>
    <marker
       inkscape:stockid="Arrow1MendUBuW8a"
       orient="auto"
       refY="0"
       refX="0"
       id="Arrow1MendUBuW8a-7"
       style="overflow:visible">
      <path
         id="path20581-9"
         d="M 0,0 5,-5 -12.5,0 5,5 0,0 z"
         style="fill:#00c8ff;fill-rule:evenodd;stroke:#00c8ff;stroke-width:1pt"
         transform="matrix(-0.4,0,0,-0.4,-4,0)"
         inkscape:connector-curvature="0" />
    </marker>
    <marker
       inkscape:stockid="Arrow1MendUBuW8hPy"
       orient="auto"
       refY="0"
       refX="0"
       id="Arrow1MendUBuW8hPy-83"
       style="overflow:visible">
      <path
         id="path9623-7"
         d="M 0,0 5,-5 -12.5,0 5,5 0,0 z"
         style="fill:#a000a0;fill-rule:evenodd;stroke:#a000a0;stroke-width:1pt"
         transform="matrix(-0.4,0,0,-0.4,-4,0)"
         inkscape:connector-curvature="0" />
    </marker>
    <marker
       inkscape:stockid="Arrow1MendUBuW8hPyE"
       orient="auto"
       refY="0"
       refX="0"
       id="Arrow1MendUBuW8hPyE"
       style="overflow:visible">
      <path
         id="path34720"
         d="M 0,0 5,-5 -12.5,0 5,5 0,0 z"
         style="fill:#000000;fill-rule:evenodd;stroke:#000000;stroke-width:1pt"
         transform="matrix(-0.4,0,0,-0.4,-4,0)"
         inkscape:connector-curvature="0" />
    </marker>
    <marker
       inkscape:stockid="Arrow1MendUBuW8hPyE"
       orient="auto"
       refY="0"
       refX="0"
       id="Arrow1MendUBuW8hPyE-3"
       style="overflow:visible">
      <path
         id="path34720-0"
         d="M 0,0 5,-5 -12.5,0 5,5 0,0 z"
         style="fill:#000000;fill-rule:evenodd;stroke:#000000;stroke-width:1pt"
         transform="matrix(-0.4,0,0,-0.4,-4,0)"
         inkscape:connector-curvature="0" />
    </marker>
  </defs>
  <sodipodi:namedview
     id="base"
     pagecolor="#ffffff"
     bordercolor="#666666"
     borderopacity="1.0"
     inkscape:pageopacity="0.0"
     inkscape:pageshadow="2"
     inkscape:zoom="0.98994949"
     inkscape:cx="283.75194"
     inkscape:cy="8.0916879"
     inkscape:document-units="px"
     inkscape:current-layer="layer1"
     showgrid="false"
     fit-margin-top="0"
     fit-margin-left="0"
     fit-margin-right="0"
     fit-margin-bottom="0"
     inkscape:window-width="1920"
     inkscape:window-height="1060"
     inkscape:window-x="0"
     inkscape:window-y="0"
     inkscape:window-maximized="1"
     inkscape:snap-global="true"
     inkscape:snap-bbox="true"
     inkscape:bbox-paths="true"
     inkscape:bbox-nodes="true"
     inkscape:snap-bbox-edge-midpoints="true"
     inkscape:snap-bbox-midpoints="true"
     inkscape:object-paths="true"
     inkscape:snap-intersection-paths="true"
     inkscape:object-nodes="true"
     inkscape:snap-smooth-nodes="true"
     inkscape:snap-midpoints="true" />
  <metadata
     id="metadata67361">
    <rdf:RDF>
      <cc:Work
         rdf:about="">
        <dc:format>image/svg+xml</dc:format>
        <dc:type
           rdf:resource="http://purl.org/dc/dcmitype/StillImage" />
        <dc:title />
      </cc:Work>
    </rdf:RDF>
  </metadata>
  <g
     inkscape:label="Layer 1"
     inkscape:groupmode="layer"
     id="layer1"
     transform="translate(-63.571884,-437.08676)">
    <rect
       style="color:#000000;fill:#ffffff;fill-opacity:1;stroke:none;stroke-width:4;marker:none;visibility:visible;display:inline;overflow:visible;enable-background:accumulate"
       id="rect67595"
       width="544.28583"
       height="97.227676"
       x="63.571884"
       y="437.08676"
       ry="0" />
    <g
       id="use33514"
       transform="translate(123.97614,384.01162)"
       inkscape:tile-x0="542.25829"
       inkscape:tile-y0="3290.5362">
      <g
         id="g34116"
         transform="translate(0,-1.6984813e-5)">
        <path
           style="fill:none;stroke:#000000;stroke-width:4;stroke-linecap:butt;stroke-linejoin:miter;stroke-miterlimit:4;stroke-opacity:1;stroke-dasharray:none"
           d="m 21.718276,116.03405 373.756434,0"
           id="path34118"
           inkscape:connector-curvature="0" />
        <path
           inkscape:tile-y0="291.70716"
           inkscape:tile-x0="72.529632"
           inkscape:tile-h="24.61323"
           inkscape:tile-w="24.613225"
           inkscape:tile-cy="304.01377"
           inkscape:tile-cx="84.836245"
           inkscape:connector-curvature="0"
           id="path34120"
           d="M 50.67584,116.03405 26.062615,140.64728"
           style="fill:none;stroke:#000000;stroke-width:1px;stroke-linecap:butt;stroke-linejoin:miter;stroke-opacity:1" />
        <path
           style="fill:none;stroke:#000000;stroke-width:1px;stroke-linecap:butt;stroke-linejoin:miter;stroke-opacity:1"
           d="M 50.67584,116.03405 26.062615,140.64728"
           id="use34122"
           inkscape:connector-curvature="0"
           inkscape:tile-x0="72.529632"
           inkscape:tile-y0="291.70716" />
        <path
           style="fill:none;stroke:#000000;stroke-width:1px;stroke-linecap:butt;stroke-linejoin:miter;stroke-opacity:1"
           d="M 99.90229,116.03405 75.289065,140.64728"
           id="use34124"
           inkscape:connector-curvature="0"
           inkscape:tile-x0="72.529632"
           inkscape:tile-y0="291.70716" />
        <path
           style="fill:none;stroke:#000000;stroke-width:1px;stroke-linecap:butt;stroke-linejoin:miter;stroke-opacity:1"
           d="m 149.12874,116.03405 -24.61323,24.61323"
           id="use34126"
           inkscape:connector-curvature="0"
           inkscape:tile-x0="72.529632"
           inkscape:tile-y0="291.70716" />
        <path
           style="fill:none;stroke:#000000;stroke-width:1px;stroke-linecap:butt;stroke-linejoin:miter;stroke-opacity:1"
           d="m 198.35519,116.03405 -24.61323,24.61323"
           id="use34128"
           inkscape:connector-curvature="0"
           inkscape:tile-x0="72.529632"
           inkscape:tile-y0="291.70716" />
        <path
           style="fill:none;stroke:#000000;stroke-width:1px;stroke-linecap:butt;stroke-linejoin:miter;stroke-opacity:1"
           d="m 247.58164,116.03405 -24.61323,24.61323"
           id="use34130"
           inkscape:connector-curvature="0"
           inkscape:tile-x0="72.529632"
           inkscape:tile-y0="291.70716" />
        <path
           style="fill:none;stroke:#000000;stroke-width:1px;stroke-linecap:butt;stroke-linejoin:miter;stroke-opacity:1"
           d="m 296.80809,116.03405 -24.61323,24.61323"
           id="use34132"
           inkscape:connector-curvature="0"
           inkscape:tile-x0="72.529632"
           inkscape:tile-y0="291.70716" />
        <path
           style="fill:none;stroke:#000000;stroke-width:1px;stroke-linecap:butt;stroke-linejoin:miter;stroke-opacity:1"
           d="m 346.03454,116.03405 -24.61323,24.61323"
           id="use34134"
           inkscape:connector-curvature="0"
           inkscape:tile-x0="72.529632"
           inkscape:tile-y0="291.70716" />
        <path
           style="fill:none;stroke:#000000;stroke-width:1px;stroke-linecap:butt;stroke-linejoin:miter;stroke-opacity:1"
           d="m 395.26099,116.03405 -24.61323,24.61323"
           id="use34136"
           inkscape:connector-curvature="0"
           inkscape:tile-x0="72.529632"
           inkscape:tile-y0="291.70716" />
      </g>
      <g
         transform="matrix(0.5,0,0,0.5,33.979682,-84.193321)"
         id="g34138">
        <g
           style="font-style:normal;font-variant:normal;font-weight:normal;font-stretch:normal;letter-spacing:normal;word-spacing:normal;text-anchor:start;fill:none;stroke:#000000;stroke-linecap:butt;stroke-linejoin:miter;stroke-miterlimit:10.43299961;stroke-opacity:1;stroke-dasharray:none;stroke-dashoffset:0"
           id="g34140"
           transform="matrix(1.0629921,0,0,-1.0629921,-186.02362,789.27165)"
           xml:space="preserve"
           stroke-miterlimit="10.433"
           font-style="normal"
           font-variant="normal"
           font-weight="normal"
           font-stretch="normal"
           font-size-adjust="none"
           letter-spacing="normal"
           word-spacing="normal"><path
             style="fill:#fe0000;fill-opacity:1;stroke-width:0"
             inkscape:connector-curvature="0"
             d="m 459.91,409.14 -0.02,-0.07 -0.01,-0.08 -0.02,-0.07 -0.01,-0.08 -0.04,-0.16 -0.04,-0.16 -0.03,-0.16 -0.04,-0.16 -0.04,-0.16 -0.04,-0.16 -0.01,-0.08 -0.02,-0.07 -0.02,-0.07 -0.01,-0.07 -0.02,-0.07 -0.01,-0.07 -0.01,-0.06 -0.01,-0.06 -0.01,-0.06 -0.01,-0.05 -0.01,-0.05 -0.01,-0.04 -0.01,-0.04 0,-0.04 0,-0.03 0,-0.02 c 0,-0.89 0.7,-1.35 1.43,-1.35 0.61,0 1.5,0.39 1.85,1.39 0.06,0.11 0.65,2.44 0.95,3.69 l 1.1,4.48 c 0.29,1.1 0.59,2.19 0.84,3.35 0.2,0.84 0.61,2.28 0.66,2.48 0.75,1.55 3.39,6.08 8.1,6.08 2.25,0 2.71,-1.84 2.71,-3.48 0,-1.25 -0.36,-2.64 -0.75,-4.14 l -1.39,-5.79 -1,-3.78 c -0.21,-1 -0.66,-2.68 -0.66,-2.93 0,-0.89 0.7,-1.35 1.45,-1.35 1.55,0 1.85,1.25 2.24,2.85 0.7,2.78 2.55,10.06 3,12 0.14,0.65 2.78,6.62 8.22,6.62 2.14,0 2.68,-1.69 2.68,-3.48 0,-2.85 -2.09,-8.52 -3.09,-11.16 -0.45,-1.2 -0.64,-1.75 -0.64,-2.75 0,-2.33 1.73,-4.08 4.08,-4.08 4.69,0 6.53,7.27 6.53,7.67 0,0.5 -0.45,0.5 -0.59,0.5 -0.5,0 -0.5,-0.15 -0.75,-0.9 -0.75,-2.64 -2.35,-6.17 -5.08,-6.17 -0.86,0 -1.21,0.5 -1.21,1.64 0,1.25 0.46,2.45 0.9,3.54 0.95,2.58 3.04,8.11 3.04,10.96 0,3.23 -2,5.32 -5.73,5.32 -3.74,0 -6.27,-2.18 -8.11,-4.82 -0.06,0.65 -0.2,2.34 -1.61,3.53 -1.24,1.04 -2.83,1.29 -4.08,1.29 -4.48,0 -6.92,-3.18 -7.76,-4.32 -0.25,2.84 -2.35,4.32 -4.6,4.32 -2.28,0 -3.23,-1.93 -3.69,-2.82 -0.89,-1.75 -1.54,-4.69 -1.54,-4.85 0,-0.5 0.5,-0.5 0.61,-0.5 0.5,0 0.54,0.07 0.84,1.16 0.84,3.53 1.84,5.92 3.64,5.92 0.8,0 1.55,-0.39 1.55,-2.28 0,-1.05 -0.16,-1.61 -0.8,-4.19 z"
             id="path34142" /></g>      </g>
      <g
         id="g34218"
         transform="translate(0,-1.6984813e-5)">
        <path
           sodipodi:type="arc"
           style="fill:#ff0000;fill-opacity:0.42131982;stroke:#ff0000;stroke-width:2;stroke-miterlimit:4;stroke-opacity:1;stroke-dasharray:none"
           id="path34220"
           sodipodi:cx="239.91122"
           sodipodi:cy="254.84674"
           sodipodi:rx="9.5964489"
           sodipodi:ry="9.5964489"
           d="m 249.50767,254.84674 c 0,5.29997 -4.29647,9.59645 -9.59645,9.59645 -5.29997,0 -9.59644,-4.29648 -9.59644,-9.59645 0,-5.29997 4.29647,-9.59645 9.59644,-9.59645 5.29998,0 9.59645,4.29648 9.59645,9.59645 z"
           transform="translate(-31.314729,-149.40914)" />
        <path
           sodipodi:type="arc"
           style="fill:#000000;fill-opacity:1;stroke:none"
           id="path34222"
           sodipodi:cx="239.91122"
           sodipodi:cy="254.84674"
           sodipodi:rx="9.5964489"
           sodipodi:ry="9.5964489"
           d="m 249.50767,254.84674 c 0,5.29997 -4.29647,9.59645 -9.59645,9.59645 -5.29997,0 -9.59644,-4.29648 -9.59644,-9.59645 0,-5.29997 4.29647,-9.59645 9.59644,-9.59645 5.29998,0 9.59645,4.29648 9.59645,9.59645 z"
           transform="matrix(0.390625,0,0,0.390625,114.88118,5.8881002)" />
      </g>
      <path
         inkscape:connector-curvature="0"
         id="path34376-9-4"
         d="m 210.5885,105.43758 92.65409,0"
         style="color:#000000;fill:#803300;stroke:#000000;stroke-width:3.98400021;stroke-linecap:round;stroke-linejoin:miter;stroke-miterlimit:4;stroke-opacity:1;stroke-dasharray:none;stroke-dashoffset:0;marker:none;marker-end:url(#Arrow1MendUBuW8hPyE);visibility:visible;display:inline;overflow:visible;enable-background:accumulate" />
      <g
         id="g64835"
         transform="matrix(0.33833422,0,0,0.33833422,94.798489,-270.36916)">
        <g
           word-spacing="normal"
           letter-spacing="normal"
           font-size-adjust="none"
           font-stretch="normal"
           font-weight="normal"
           font-variant="normal"
           font-style="normal"
           stroke-miterlimit="10.433"
           xml:space="preserve"
           transform="matrix(1.4285714,0,0,-1.4285714,-250,1629.5475)"
           id="g64837"
           style="font-style:normal;font-variant:normal;font-weight:normal;font-stretch:normal;letter-spacing:normal;word-spacing:normal;text-anchor:start;fill:none;stroke:#000000;stroke-width:2.95565724;stroke-linecap:butt;stroke-linejoin:miter;stroke-miterlimit:10.43299961;stroke-opacity:1;stroke-dasharray:none;stroke-dashoffset:0"><path
             id="path64839"
             d="m 489.71,448.44 -0.07,-0.06 -0.07,-0.07 -0.08,-0.07 -0.08,-0.07 -0.08,-0.08 -0.09,-0.08 -0.09,-0.09 -0.1,-0.08 -0.09,-0.09 -0.1,-0.09 -0.19,-0.19 -0.2,-0.2 -0.19,-0.2 -0.09,-0.11 -0.09,-0.1 -0.09,-0.1 -0.08,-0.1 -0.08,-0.11 -0.08,-0.1 -0.07,-0.1 -0.06,-0.1 -0.06,-0.1 -0.06,-0.1 -0.04,-0.1 -0.04,-0.09 -0.03,-0.09 -0.02,-0.09 -0.02,-0.09 0,-0.09 c 0,-0.5 0.5,-1 1,-1 0.45,0 0.7,0.36 0.95,0.66 0.59,0.75 1.73,2.14 3.94,3.23 0.34,0.21 0.84,0.46 0.84,1.05 0,0.5 -0.34,0.75 -0.7,1 -1.1,0.75 -1.64,1.64 -2.05,2.83 -0.09,0.45 -0.3,1.11 -0.98,1.11 -0.71,0 -1,-0.66 -1,-1.05 0,-0.25 0.39,-1.84 1.18,-2.89 h -16.78 c -0.84,0 -1.75,0 -1.75,-1 0,-1 0.91,-1 1.75,-1 z"
             inkscape:connector-curvature="0"
             style="fill:#000000;stroke-width:0" /><path
             id="path64841"
             d="m 470.61,422.39 h 4.83 c 3.75,0 4.14,-0.8 4.14,-2.24 0,-0.36 0,-0.95 -0.34,-2.44 -0.11,-0.25 -0.16,-0.45 -0.16,-0.56 0,-0.39 0.3,-0.59 0.6,-0.59 0.5,0 0.5,0.15 0.75,1.05 l 2.75,10.81 c 0.14,0.54 0.14,0.65 0.14,0.79 0,0.1 -0.1,0.55 -0.6,0.55 -0.5,0 -0.54,-0.25 -0.75,-1.05 -1.04,-3.87 -2.18,-4.78 -6.42,-4.78 h -4.53 l 3.19,12.66 c 0.43,1.75 0.5,1.94 2.68,1.94 h 6.58 c 6.13,0 7.27,-1.64 7.27,-5.47 0,-1.16 0,-1.35 -0.14,-2.7 -0.11,-0.65 -0.11,-0.74 -0.11,-0.9 0,-0.25 0.15,-0.59 0.61,-0.59 0.54,0 0.59,0.3 0.69,1.25 l 1,8.61 c 0.15,1.34 -0.1,1.34 -1.35,1.34 h -24.4 c -1,0 -1.5,0 -1.5,-1 0,-0.54 0.45,-0.54 1.39,-0.54 1.84,0 3.23,0 3.23,-0.89 0,-0.21 0,-0.3 -0.25,-1.21 l -6.56,-26.34 c -0.5,-1.95 -0.61,-2.34 -4.55,-2.34 -0.84,0 -1.39,0 -1.39,-0.96 0,-0.59 0.59,-0.59 0.75,-0.59 1.44,0 5.13,0.16 6.58,0.16 1.64,0 5.78,-0.16 7.42,-0.16 0.45,0 1.05,0 1.05,0.95 0,0.39 -0.3,0.49 -0.3,0.55 -0.16,0.05 -0.25,0.05 -1.39,0.05 -1.11,0 -1.36,0 -2.59,0.09 -1.46,0.16 -1.6,0.36 -1.6,1 0,0.09 0,0.41 0.19,1.14 z"
             inkscape:connector-curvature="0"
             style="fill:#000000;stroke-width:0" /><path
             id="path64843"
             d="m 505.5,409.32 -0.01,0.28 -0.01,0.28 -0.02,0.26 -0.04,0.26 -0.04,0.25 -0.05,0.24 -0.06,0.24 -0.06,0.22 -0.08,0.22 -0.09,0.21 -0.1,0.2 -0.11,0.19 -0.12,0.19 -0.13,0.17 -0.14,0.17 -0.15,0.16 -0.17,0.15 -0.17,0.14 -0.18,0.13 -0.2,0.12 -0.21,0.12 -0.22,0.1 -0.23,0.09 -0.24,0.09 -0.26,0.07 -0.26,0.07 -0.28,0.05 -0.3,0.05 -0.3,0.03 -0.32,0.03 -0.33,0.02 -0.34,0 c -2.86,0 -4.71,-1.56 -5.69,-3.37 h -0.03 v 3.37 l -5.13,-0.37 v -1.25 c 2.35,0 2.63,-0.25 2.63,-1.96 v -9.03 c 0,-1.5 -0.36,-1.5 -2.63,-1.5 v -1.25 c 0.08,0 2.52,0.14 3.99,0.14 1.28,0 3.69,-0.11 4,-0.14 v 1.25 c -2.27,0 -2.61,0 -2.61,1.5 v 6.28 c 0,3.66 2.89,5.36 5.19,5.36 2.43,0 2.75,-1.92 2.75,-3.69 v -7.95 c 0,-1.5 -0.35,-1.5 -2.61,-1.5 v -1.25 c 0.07,0 2.51,0.14 3.97,0.14 1.29,0 3.7,-0.11 4.01,-0.14 v 1.25 c -2.26,0 -2.62,0 -2.62,1.5 z"
             inkscape:connector-curvature="0"
             style="fill:#000000;stroke-width:0" /><path
             id="path64845"
             d="m 524.84,406.7 0.07,0 0.07,0 0.06,0 0.06,0 0.05,0 0.06,0 0.05,0.01 0.05,0 0.04,0.01 0.05,0 0.04,0.01 0.04,0.01 0.03,0.01 0.04,0.01 0.03,0.02 0.03,0.02 0.03,0.02 0.02,0.02 0.03,0.02 0.02,0.03 0.02,0.03 0.02,0.03 0.01,0.02 0,0.02 0.01,0.02 0.01,0.02 0,0.02 0.01,0.02 0.01,0.02 0,0.03 0,0.02 0.01,0.03 0,0.02 0.01,0.03 0,0.03 0,0.03 0,0.03 0.01,0.03 0,0.04 0,0.03 0,0.03 0,0.04 c 0,3.06 -1.72,6.83 -6.91,6.83 -4.56,0 -8.04,-3.63 -8.04,-7.92 0,-4.43 3.87,-7.97 8.5,-7.97 4.7,0 6.45,3.76 6.45,4.53 0,0.14 -0.08,0.48 -0.6,0.48 -0.45,0 -0.53,-0.22 -0.62,-0.56 -1.09,-2.81 -3.73,-3.34 -4.99,-3.34 -1.64,0 -3.2,0.73 -4.24,2.06 -1.3,1.62 -1.33,3.75 -1.33,5.11 l 0.03,0.91 c 0.39,4.92 3.51,5.71 4.84,5.71 4.28,0 4.42,-4.84 4.47,-5.71 h -9.31 l -0.03,-0.91 z"
             inkscape:connector-curvature="0"
             style="fill:#000000;stroke-width:0" /><path
             id="path64847"
             d="m 534.27,412.53 h 5.44 v 1.25 h -5.44 v 6.4 h -1.18 c -0.04,-3.12 -1.46,-6.57 -4.8,-6.68 v -0.97 h 3.23 v -9.41 c 0,-3.91 2.93,-4.7 4.88,-4.7 2.34,0 3.94,1.98 3.94,4.73 v 1.92 h -1.19 v -1.89 c 0,-2.36 -1.11,-3.65 -2.47,-3.65 -2.41,0 -2.41,2.92 -2.41,3.56 z"
             inkscape:connector-curvature="0"
             style="fill:#000000;stroke-width:0" /></g>      </g>
    </g>
  </g>
</svg>
