<?xml version="1.0" encoding="UTF-8" standalone="no"?>
<!-- Created with Inkscape (http://www.inkscape.org/) -->

<svg
   xmlns:dc="http://purl.org/dc/elements/1.1/"
   xmlns:cc="http://creativecommons.org/ns#"
   xmlns:rdf="http://www.w3.org/1999/02/22-rdf-syntax-ns#"
   xmlns:svg="http://www.w3.org/2000/svg"
   xmlns="http://www.w3.org/2000/svg"
   xmlns:sodipodi="http://sodipodi.sourceforge.net/DTD/sodipodi-0.dtd"
   xmlns:inkscape="http://www.inkscape.org/namespaces/inkscape"
   id="svg2"
   version="1.1"
   inkscape:version="0.47pre4 r22446"
   width="294.54227"
   height="356.5"
   xml:space="preserve"
   sodipodi:docname="conic_section_orbits.svg"><metadata
     id="metadata8"><rdf:RDF><cc:Work
         rdf:about=""><dc:format>image/svg+xml</dc:format><dc:type
           rdf:resource="http://purl.org/dc/dcmitype/StillImage" /><dc:title></dc:title></cc:Work></rdf:RDF></metadata><defs
     id="defs6"><marker
       inkscape:stockid="Arrow2Mend"
       orient="auto"
       refY="0"
       refX="0"
       id="Arrow2Mend"
       style="overflow:visible"><path
         id="path3896"
         style="font-size:12px;fill-rule:evenodd;stroke-width:0.625;stroke-linejoin:round"
         d="M 8.7185878,4.0337352 -2.2072895,0.01601326 8.7185884,-4.0017078 c -1.7454984,2.3720609 -1.7354408,5.6174519 -6e-7,8.035443 z"
         transform="scale(-0.6,-0.6)" /></marker><marker
       inkscape:stockid="Arrow2Mstart"
       orient="auto"
       refY="0"
       refX="0"
       id="Arrow2Mstart"
       style="overflow:visible"><path
         id="path3893"
         style="font-size:12px;fill-rule:evenodd;stroke-width:0.625;stroke-linejoin:round"
         d="M 8.7185878,4.0337352 -2.2072895,0.01601326 8.7185884,-4.0017078 c -1.7454984,2.3720609 -1.7354408,5.6174519 -6e-7,8.035443 z"
         transform="scale(0.6,0.6)" /></marker><inkscape:perspective
       sodipodi:type="inkscape:persp3d"
       inkscape:vp_x="0 : 0.5 : 1"
       inkscape:vp_y="0 : 1000 : 0"
       inkscape:vp_z="1 : 0.5 : 1"
       inkscape:persp3d-origin="0.5 : 0.33333333 : 1"
       id="perspective10" /><clipPath
       clipPathUnits="userSpaceOnUse"
       id="clipPath20"><path
         d="m 188.6,41.4 c 37.81796,0 74.09209,15.025236 100.83343,41.766573 C 316.17476,109.90791 331.2,146.18204 331.2,184 c 0,37.81796 -15.02524,74.09209 -41.76657,100.83343 C 262.69209,311.57476 226.41796,326.6 188.6,326.6 150.78204,326.6 114.50791,311.57476 87.766573,284.83343 61.025236,258.09209 46,221.81796 46,184 46,146.18204 61.025236,109.90791 87.766573,83.166573 114.50791,56.425236 150.78204,41.4 188.6,41.4 z"
         id="path22" /></clipPath><clipPath
       clipPathUnits="userSpaceOnUse"
       id="clipPath30"><path
         d="m 188.6,41.4 c 37.81796,0 74.09209,15.025236 100.83343,41.766573 C 316.17476,109.90791 331.2,146.18204 331.2,184 c 0,37.81796 -15.02524,74.09209 -41.76657,100.83343 C 262.69209,311.57476 226.41796,326.6 188.6,326.6 150.78204,326.6 114.50791,311.57476 87.766573,284.83343 61.025236,258.09209 46,221.81796 46,184 46,146.18204 61.025236,109.90791 87.766573,83.166573 114.50791,56.425236 150.78204,41.4 188.6,41.4 z"
         id="path32" /></clipPath><clipPath
       clipPathUnits="userSpaceOnUse"
       id="clipPath40"><path
         d="m 188.6,41.4 c 37.81796,0 74.09209,15.025236 100.83343,41.766573 C 316.17476,109.90791 331.2,146.18204 331.2,184 c 0,37.81796 -15.02524,74.09209 -41.76657,100.83343 C 262.69209,311.57476 226.41796,326.6 188.6,326.6 150.78204,326.6 114.50791,311.57476 87.766573,284.83343 61.025236,258.09209 46,221.81796 46,184 46,146.18204 61.025236,109.90791 87.766573,83.166573 114.50791,56.425236 150.78204,41.4 188.6,41.4 z"
         id="path42" /></clipPath><clipPath
       clipPathUnits="userSpaceOnUse"
       id="clipPath50"><path
         d="m 188.6,41.4 c 37.81796,0 74.09209,15.025236 100.83343,41.766573 C 316.17476,109.90791 331.2,146.18204 331.2,184 c 0,37.81796 -15.02524,74.09209 -41.76657,100.83343 C 262.69209,311.57476 226.41796,326.6 188.6,326.6 150.78204,326.6 114.50791,311.57476 87.766573,284.83343 61.025236,258.09209 46,221.81796 46,184 46,146.18204 61.025236,109.90791 87.766573,83.166573 114.50791,56.425236 150.78204,41.4 188.6,41.4 z"
         id="path52" /></clipPath><clipPath
       clipPathUnits="userSpaceOnUse"
       id="clipPath60"><path
         d="m 188.6,41.4 c 37.81796,0 74.09209,15.025236 100.83343,41.766573 C 316.17476,109.90791 331.2,146.18204 331.2,184 c 0,37.81796 -15.02524,74.09209 -41.76657,100.83343 C 262.69209,311.57476 226.41796,326.6 188.6,326.6 150.78204,326.6 114.50791,311.57476 87.766573,284.83343 61.025236,258.09209 46,221.81796 46,184 46,146.18204 61.025236,109.90791 87.766573,83.166573 114.50791,56.425236 150.78204,41.4 188.6,41.4 z"
         id="path62" /></clipPath><clipPath
       clipPathUnits="userSpaceOnUse"
       id="clipPath74"><path
         d="m 188.6,41.4 c 37.81796,0 74.09209,15.025236 100.83343,41.766573 C 316.17476,109.90791 331.2,146.18204 331.2,184 c 0,37.81796 -15.02524,74.09209 -41.76657,100.83343 C 262.69209,311.57476 226.41796,326.6 188.6,326.6 150.78204,326.6 114.50791,311.57476 87.766573,284.83343 61.025236,258.09209 46,221.81796 46,184 46,146.18204 61.025236,109.90791 87.766573,83.166573 114.50791,56.425236 150.78204,41.4 188.6,41.4 z"
         id="path76" /></clipPath><clipPath
       clipPathUnits="userSpaceOnUse"
       id="clipPath88"><path
         d="m 188.6,41.4 c 37.81796,0 74.09209,15.025236 100.83343,41.766573 C 316.17476,109.90791 331.2,146.18204 331.2,184 c 0,37.81796 -15.02524,74.09209 -41.76657,100.83343 C 262.69209,311.57476 226.41796,326.6 188.6,326.6 150.78204,326.6 114.50791,311.57476 87.766573,284.83343 61.025236,258.09209 46,221.81796 46,184 46,146.18204 61.025236,109.90791 87.766573,83.166573 114.50791,56.425236 150.78204,41.4 188.6,41.4 z"
         id="path90" /></clipPath><clipPath
       clipPathUnits="userSpaceOnUse"
       id="clipPath102"><path
         d="m 188.6,41.4 c 37.81796,0 74.09209,15.025236 100.83343,41.766573 C 316.17476,109.90791 331.2,146.18204 331.2,184 c 0,37.81796 -15.02524,74.09209 -41.76657,100.83343 C 262.69209,311.57476 226.41796,326.6 188.6,326.6 150.78204,326.6 114.50791,311.57476 87.766573,284.83343 61.025236,258.09209 46,221.81796 46,184 46,146.18204 61.025236,109.90791 87.766573,83.166573 114.50791,56.425236 150.78204,41.4 188.6,41.4 z"
         id="path104" /></clipPath><inkscape:perspective
       id="perspective2990"
       inkscape:persp3d-origin="0.5 : 0.33333333 : 1"
       inkscape:vp_z="1 : 0.5 : 1"
       inkscape:vp_y="0 : 1000 : 0"
       inkscape:vp_x="0 : 0.5 : 1"
       sodipodi:type="inkscape:persp3d" /><inkscape:perspective
       id="perspective3015"
       inkscape:persp3d-origin="0.5 : 0.33333333 : 1"
       inkscape:vp_z="1 : 0.5 : 1"
       inkscape:vp_y="0 : 1000 : 0"
       inkscape:vp_x="0 : 0.5 : 1"
       sodipodi:type="inkscape:persp3d" /></defs><sodipodi:namedview
     pagecolor="#ffffff"
     bordercolor="#666666"
     borderopacity="1"
     objecttolerance="10"
     gridtolerance="10"
     guidetolerance="10"
     inkscape:pageopacity="0"
     inkscape:pageshadow="2"
     inkscape:window-width="1916"
     inkscape:window-height="1153"
     id="namedview4"
     showgrid="false"
     inkscape:zoom="1.5187424"
     inkscape:cx="317.24716"
     inkscape:cy="120.96804"
     inkscape:window-x="0"
     inkscape:window-y="25"
     inkscape:window-maximized="1"
     inkscape:current-layer="g12" /><g
     id="g12"
     inkscape:groupmode="layer"
     inkscape:label="conic_section_orbits"
     transform="matrix(1.25,0,0,-1.25,-20.32373,408.25)"><path
       style="fill:none;stroke:#000000;stroke-width:0.71920002;stroke-linecap:butt;stroke-linejoin:miter;stroke-miterlimit:4;stroke-opacity:1;stroke-dasharray:none;marker-start:url(#Arrow2Mstart);marker-end:url(#Arrow2Mend)"
       d="m 188.6,73.493156 0,227.861464"
       id="path3806" /><path
       style="fill:none;stroke:#000000;stroke-width:0.65485269px;stroke-linecap:butt;stroke-linejoin:miter;stroke-opacity:1;marker-start:url(#Arrow2Mstart);marker-end:url(#Arrow2Mend)"
       d="M 47.357898,184 236.1601,184"
       id="path3804" /><g
       id="g16"><g
         id="g18"
         clip-path="url(#clipPath20)"><path
           d="m 222.15294,184 -0.3905,5.10419 -0.94994,4.2849 -1.6202,4.39174 -2.21564,4.12351 -3.15022,4.21865 -3.10345,3.10345 -4.21865,3.15022 -4.12351,2.21564 -4.39174,1.6202 -4.2849,0.94994 -5.10419,0.3905 -5.10419,-0.3905 -4.2849,-0.94994 -4.39174,-1.6202 -4.12351,-2.21564 -4.21865,-3.15022 -3.10345,-3.10345 -3.15022,-4.21865 -2.21564,-4.12351 -1.6202,-4.39174 -0.94994,-4.2849 -0.3905,-5.10419 0.3905,-5.10419 0.94994,-4.2849 1.6202,-4.39174 2.21564,-4.12351 3.15022,-4.21865 3.10345,-3.10345 4.21865,-3.15022 4.12351,-2.21564 4.39174,-1.6202 4.2849,-0.94994 5.10419,-0.3905 5.10419,0.3905 4.2849,0.94994 4.39174,1.6202 4.12351,2.21564 4.21865,3.15022 3.10345,3.10345 3.15022,4.21865 2.21564,4.12351 1.6202,4.39174 0.94994,4.2849 0.37485,4.07953 0,0"
           style="fill:none;stroke:#000000;stroke-width:1.5;stroke-linecap:butt;stroke-linejoin:round;stroke-miterlimit:10;stroke-opacity:1;stroke-dasharray:1, 0;stroke-dashoffset:0"
           id="path24" /></g></g><g
       id="g26"><g
         id="g28"
         clip-path="url(#clipPath30)"><path
           d="m 207.77311,184 -0.37885,5.03591 -1.1784,5.13461 -1.60497,4.24575 -2.15367,4.14079 -2.86269,4.23695 -3.525,4.14023 -4.21726,4.00905 -5.39892,4.15405 -6.52285,4.00826 -6.76562,3.30206 -7.662,2.92299 -8.14859,2.32698 -7.9339,1.59788 -9.02142,1.09594 -8.63181,0.3738 -8.35409,-0.25214 -8.93213,-0.94834 -8.19363,-1.52143 -8.408392,-2.27615 -7.23677,-2.6247 -7.103874,-3.29816 -5.686823,-3.28494 -5.347833,-3.77682 -3.948443,-3.36779 -4.001782,-4.13721 -3.791105,-4.99007 -2.46,-4.24895 -1.894245,-4.43325 -1.28709,-4.56996 -0.650991,-4.65409 0,-4.6825 0.650991,-4.65409 1.28709,-4.56996 1.894245,-4.43325 2.46,-4.24895 2.576181,-3.53414 3.826705,-4.2538 5.338444,-4.70713 5.347833,-3.77682 5.686823,-3.28494 7.103874,-3.29816 7.23677,-2.6247 8.408392,-2.27615 8.19363,-1.52143 8.93213,-0.94834 8.35409,-0.25214 8.63181,0.3738 9.02142,1.09594 7.9339,1.59788 8.14859,2.32698 7.662,2.92299 6.76562,3.30206 6.52285,4.00826 5.27331,4.04642 4.24465,4.01328 3.54795,4.14492 2.88187,4.24156 2.16921,4.14472 1.61849,4.24894 1.19258,5.1371 0.39159,5.03674 0,0"
           style="fill:none;stroke:#000000;stroke-width:1.5;stroke-linecap:butt;stroke-linejoin:round;stroke-miterlimit:10;stroke-opacity:1;stroke-dasharray:1, 2;stroke-dashoffset:0"
           id="path34" /></g></g><g
       id="g36"
       transform="translate(0,2e-6)"><g
         id="g38"
         clip-path="url(#clipPath40)"><path
           d="m 205.37647,184 -0.39743,5.16429 -1.19527,5.17397 -2.01383,5.21871 -2.88068,5.30759 -3.66153,5.23219 -4.56798,5.32901 -5.26329,5.19085 -6.5349,5.56522 -8.02199,5.95993 -9.27314,6.07919 -11.92897,6.93799 -13.24534,6.87969 -15.6476,7.32251 -16.86148,7.16647 -20.129831,7.81416 -21.90256,7.79806 -25.228924,8.2765 -28.7159643,8.6986 L 0,301.39567 m 0,-234.791344 28.664142,8.499224 26.860904,8.617279 24.9153,8.715265 20.860344,7.992996 18.44217,7.76511 15.10959,7.01208 13.61622,6.99689 11.79287,6.77432 10.57803,6.88075 8.02199,5.95993 6.5349,5.56522 5.26329,5.19085 4.56798,5.32901 3.66153,5.23219 2.83929,5.21857 2.03041,5.22752 1.20846,5.17922 0.40897,5.16605 0,0"
           style="fill:none;stroke:#000000;stroke-width:1.5;stroke-linecap:butt;stroke-linejoin:round;stroke-miterlimit:10;stroke-opacity:1;stroke-dasharray:5, 5;stroke-dashoffset:0"
           id="path44" /></g></g><g
       id="g46"><g
         id="g48"
         clip-path="url(#clipPath50)"><path
           d="m 199.78431,184 -0.38043,5.09544 -1.08611,5.14496 -2.03307,6.23949 -3.60339,8.58027 -5.68475,11.66468 -9.92447,18.6977 -18.6726,33.5453 -39.27443,68.92597 L 104.14876,368 m 0,-368 57.30634,100.45659 19.8087,35.87933 8.92584,17.33204 4.9752,10.99264 2.64622,7.33531 1.48176,6.19836 0.48549,5.17098 0,0"
           style="fill:none;stroke:#000000;stroke-width:1.5;stroke-linecap:butt;stroke-linejoin:round;stroke-miterlimit:10;stroke-opacity:1;stroke-dasharray:1, 2, 5, 2;stroke-dashoffset:0"
           id="path54" /></g></g><text
       transform="scale(1,-1)"
       id="text66"
       x="239.40337"
       y="-179.63281"><tspan
         style="font-size:12px;font-variant:normal;font-weight:normal;writing-mode:lr-tb;fill:#000000;fill-opacity:1;fill-rule:nonzero;stroke:none;font-family:DejaVu Sans;-inkscape-font-specification:DejaVuSans"
         x="239.40337 247.03537"
         y="-179.63281"
         sodipodi:role="line"
         id="tspan68">0°</tspan></text>
<text
       transform="scale(1,-1)"
       id="text80"
       x="178.90469"
       y="-307.92596"><tspan
         style="font-size:12px;font-variant:normal;font-weight:normal;writing-mode:lr-tb;fill:#000000;fill-opacity:1;fill-rule:nonzero;stroke:none;font-family:DejaVu Sans;-inkscape-font-specification:DejaVuSans"
         x="178.90469 186.5367 194.16869"
         y="-307.92596"
         sodipodi:role="line"
         id="tspan82">90°</tspan></text>
<text
       transform="matrix(1,0,0,-1,14.940625,179.63281)"
       id="text94"><tspan
         style="font-size:12px;font-variant:normal;font-weight:normal;writing-mode:lr-tb;fill:#000000;fill-opacity:1;fill-rule:nonzero;stroke:none;font-family:DejaVu Sans;-inkscape-font-specification:DejaVuSans"
         x="0 7.632 15.264 22.896"
         y="0"
         sodipodi:role="line"
         id="tspan96">180°</tspan></text>
<text
       transform="scale(1,-1)"
       id="text108"
       x="175.14687"
       y="-55.553673"><tspan
         style="font-size:12px;font-variant:normal;font-weight:normal;writing-mode:lr-tb;fill:#000000;fill-opacity:1;fill-rule:nonzero;stroke:none;font-family:DejaVu Sans;-inkscape-font-specification:DejaVuSans"
         x="175.14687 182.77887 190.41087 198.04288"
         y="-55.553673"
         sodipodi:role="line"
         id="tspan110">270°</tspan></text>
<g
       id="g116"
       transform="translate(129.44648,159.71597)"><text
         transform="matrix(1,0,0,-1,0,1.421875)"
         id="text118"><tspan
           style="font-size:14.39999962px;font-variant:normal;font-weight:normal;writing-mode:lr-tb;fill:#000000;fill-opacity:1;fill-rule:nonzero;stroke:none;font-family:Cmmi10;-inkscape-font-specification:Cmmi10"
           x="0"
           y="0"
           id="tspan120">ε</tspan></text>
<text
         transform="matrix(1,0,0,-1,9.2302368,1.421875)"
         id="text122"><tspan
           style="font-size:14.39999962px;font-variant:normal;font-weight:normal;writing-mode:lr-tb;fill:#000000;fill-opacity:1;fill-rule:nonzero;stroke:none;font-family:Cmr10;-inkscape-font-specification:Cmr10"
           x="0 12.089292"
           y="0"
           sodipodi:role="line"
           id="tspan124">=0</tspan></text>
</g><g
       id="g148"
       transform="translate(78.045668,248.58659)"><text
         transform="matrix(1,0,0,-1,0,1.421875)"
         id="text150"><tspan
           style="font-size:14.39999962px;font-variant:normal;font-weight:normal;writing-mode:lr-tb;fill:#000000;fill-opacity:1;fill-rule:nonzero;stroke:none;font-family:Cmmi10;-inkscape-font-specification:Cmmi10"
           x="0"
           y="0"
           id="tspan152">ε</tspan></text>
<text
         transform="matrix(1,0,0,-1,9.2302368,1.421875)"
         id="text154"><tspan
           style="font-size:14.39999962px;font-variant:normal;font-weight:normal;writing-mode:lr-tb;fill:#000000;fill-opacity:1;fill-rule:nonzero;stroke:none;font-family:Cmr10;-inkscape-font-specification:Cmr10"
           x="0 12.089292"
           y="0"
           sodipodi:role="line"
           id="tspan156">=1</tspan></text>
<text
         transform="matrix(1,0,0,-1,28.514841,1.421875)"
         id="text158"><tspan
           style="font-size:14.39999962px;font-variant:normal;font-weight:normal;writing-mode:lr-tb;fill:#000000;fill-opacity:1;fill-rule:nonzero;stroke:none;font-family:DejaVu Serif;-inkscape-font-specification:DejaVu Serif"
           x="0"
           y="0"
           id="tspan160">.</tspan></text>
<text
         transform="matrix(1,0,0,-1,32.619757,1.421875)"
         id="text162"><tspan
           style="font-size:14.39999962px;font-variant:normal;font-weight:normal;writing-mode:lr-tb;fill:#000000;fill-opacity:1;fill-rule:nonzero;stroke:none;font-family:Cmr10;-inkscape-font-specification:Cmr10"
           x="0"
           y="0"
           id="tspan164">0</tspan></text>
</g><g
       id="g168"
       transform="translate(155.70011,278.51752)"><text
         transform="matrix(1,0,0,-1,0,1.421875)"
         id="text170"><tspan
           style="font-size:14.39999962px;font-variant:normal;font-weight:normal;writing-mode:lr-tb;fill:#000000;fill-opacity:1;fill-rule:nonzero;stroke:none;font-family:Cmmi10;-inkscape-font-specification:Cmmi10"
           x="0"
           y="0"
           id="tspan172">ε</tspan></text>
<text
         transform="matrix(1,0,0,-1,9.2302368,1.421875)"
         id="text174"><tspan
           style="font-size:14.39999962px;font-variant:normal;font-weight:normal;writing-mode:lr-tb;fill:#000000;fill-opacity:1;fill-rule:nonzero;stroke:none;font-family:Cmr10;-inkscape-font-specification:Cmr10"
           x="0 12.089292"
           y="0"
           sodipodi:role="line"
           id="tspan176">=2</tspan></text>
</g><g
       id="g4874"><g
         transform="translate(62.401943,193.34967)"
         id="g128"><text
           id="text130"
           transform="matrix(1,0,0,-1,0,1.28125)"><tspan
             id="tspan132"
             y="0"
             x="0"
             style="font-size:14.39999962px;font-variant:normal;font-weight:normal;writing-mode:lr-tb;fill:#000000;fill-opacity:1;fill-rule:nonzero;stroke:none;font-family:Cmmi10;-inkscape-font-specification:Cmmi10">ε</tspan></text>
<text
           id="text134"
           transform="matrix(1,0,0,-1,9.2302368,1.28125)"><tspan
             id="tspan136"
             sodipodi:role="line"
             y="0"
             x="0 12.089292"
             style="font-size:14.39999962px;font-variant:normal;font-weight:normal;writing-mode:lr-tb;fill:#000000;fill-opacity:1;fill-rule:nonzero;stroke:none;font-family:Cmr10;-inkscape-font-specification:Cmr10">=0</tspan></text>
<text
           id="text138"
           transform="matrix(1,0,0,-1,28.514841,1.28125)"><tspan
             id="tspan140"
             y="0"
             x="0"
             style="font-size:14.39999962px;font-variant:normal;font-weight:normal;writing-mode:lr-tb;fill:#000000;fill-opacity:1;fill-rule:nonzero;stroke:none;font-family:Cmmi10;-inkscape-font-specification:Cmmi10" /></text>
<text
           id="text142"
           transform="matrix(1,0,0,-1,32.619757,1.28125)"><tspan
             id="tspan144"
             sodipodi:role="line"
             y="0"
             x="0 7.1953125"
             style="font-size:14.39999962px;font-variant:normal;font-weight:normal;writing-mode:lr-tb;fill:#000000;fill-opacity:1;fill-rule:nonzero;stroke:none;font-family:Cmr10;-inkscape-font-specification:Cmr10">75</tspan></text>
</g><text
         transform="scale(1,-1)"
         id="text158-3"
         x="92.222008"
         y="-194.81178"
         style="font-size:12px"><tspan
           id="tspan160-0"
           y="-194.81178"
           x="92.222008"
           style="font-size:14.39999962px;font-variant:normal;font-weight:normal;writing-mode:lr-tb;fill:#000000;fill-opacity:1;fill-rule:nonzero;stroke:none;font-family:DejaVu Serif;-inkscape-font-specification:DejaVu Serif">.</tspan></text>
</g></g></svg>